<svg xmlns="http://www.w3.org/2000/svg" version="1.1" viewBox="264 219.64 494.15 506.36">
<path d="M0 0 C2.44717967 -0.00107628 4.89435909 -0.00302006 7.34153748 -0.00575256 C13.23732974 -0.010054 19.13307024 -0.00523161 25.02885263 0.00409774 C31.92842999 0.01461257 38.82799581 0.01440811 45.72757966 0.01392516 C58.05830715 0.01342713 70.3890085 0.02251449 82.71972656 0.03710938 C94.62109859 0.05118832 106.52244765 0.05828002 118.42382812 0.05761719 C119.15693869 0.05757723 119.89004926 0.05753728 120.6453753 0.05749611 C121.74334352 0.05743558 121.74334352 0.05743558 122.86349291 0.05737382 C136.5042032 0.05667968 150.14490394 0.06259883 163.7856111 0.07152704 C168.56809772 0.07451311 173.35058255 0.07560295 178.13306999 0.07605934 C184.59870966 0.07682247 191.06433045 0.08326991 197.52996254 0.09322548 C199.88229605 0.09610899 202.23463226 0.09738445 204.58696747 0.09679794 C216.26712642 0.09499006 227.93239947 0.20841151 239.60523987 0.64653015 C240.56813177 0.67944556 241.53102367 0.71236097 242.52309412 0.74627382 C273.60393398 2.06618577 301.76066914 16.31246636 323.07446289 38.68041992 C335.51218972 53.11818323 344.38177211 70.68438981 348.63696289 89.24291992 C348.80306753 89.95059195 348.96917217 90.65826397 349.14031029 91.3873806 C350.51732165 97.66105371 350.94129481 103.6158941 350.95581055 110.02661133 C350.96585051 111.06772064 350.97589046 112.10882996 350.98623466 113.18148804 C351.01718175 116.65248134 351.03421876 120.12339396 351.05102539 123.59448242 C351.06996033 126.10151717 351.08963373 128.60854642 351.10998535 131.11557007 C351.15699519 137.22910874 351.194406 143.34264121 351.2268846 149.45627248 C351.25358211 154.45435435 351.28433562 159.45239693 351.31756592 164.45043945 C351.61653398 209.68949843 351.73749097 254.92918257 351.75835907 300.16917932 C351.76052591 304.85824712 351.76379236 309.54731218 351.76803935 314.23637855 C351.81910176 371.97535103 351.81910176 371.97535103 351.3649559 391.29333496 C351.31978987 393.23308813 351.28453964 395.17306509 351.25003052 397.11303711 C350.41463649 424.37026847 340.03654639 448.32612938 321.63696289 468.24291992 C320.9937207 468.96737305 320.35047852 469.69182617 319.68774414 470.43823242 C299.18373923 492.40998606 268.48644946 503.29371387 238.95851457 504.33761072 C236.05512981 504.3765199 233.15320246 504.38584087 230.2495575 504.38336182 C228.59287708 504.3878185 228.59287708 504.3878185 226.90272838 504.39236522 C223.22388141 504.4009953 219.5450672 504.40255564 215.86621094 504.40405273 C213.21903839 504.40868504 210.57186873 504.41369038 207.92469788 504.4190979 C200.74642467 504.43262706 193.56815709 504.43869785 186.38987327 504.44310856 C181.89737885 504.44588096 177.40488655 504.45012015 172.91239357 504.45461273 C160.44510248 504.46679979 147.97781308 504.47709926 135.51051617 504.48048782 C134.71395992 504.48070739 133.91740367 504.48092696 133.09670936 504.48115318 C132.29836915 504.48137145 131.50002895 504.48158973 130.67749661 504.48181462 C129.06006284 504.48225807 127.44262908 504.48270463 125.82519531 504.4831543 C124.62176979 504.48348644 124.62176979 504.48348644 123.39403263 504.4838253 C110.41757756 504.48776655 97.44117887 504.50520252 84.46474554 504.52851382 C71.10418872 504.55231898 57.74366008 504.56469387 44.38308173 504.56585574 C36.8970007 504.56676753 29.4109931 504.57239323 21.92493248 504.59067535 C15.5456536 504.60620087 9.16647085 504.61112455 2.78717663 504.60293725 C-0.45802865 504.59907378 -3.70300395 504.60143256 -6.9481926 504.6139946 C-25.44817821 504.68134612 -44.4932453 504.48041478 -62.11303711 498.11791992 C-62.97026367 497.81861572 -63.82749023 497.51931152 -64.71069336 497.2109375 C-94.12805675 486.54169561 -117.28534715 465.6939886 -130.57788086 437.33276367 C-140.12796069 415.99058738 -140.82216417 393.61813827 -140.75521111 370.58346033 C-140.74831964 367.06330884 -140.75895082 363.54319879 -140.76715088 360.02305603 C-140.78038378 353.1562895 -140.77765787 346.28962219 -140.76891296 339.42285202 C-140.76209631 333.83566133 -140.76123673 328.24849815 -140.76448441 322.66130447 C-140.7649441 321.86158116 -140.7654038 321.06185785 -140.76587743 320.2379005 C-140.76683675 318.61254734 -140.76780939 316.98719418 -140.76879521 315.36184104 C-140.7773182 300.17643592 -140.76756319 284.99108544 -140.75139411 269.80568929 C-140.73798858 256.81403575 -140.74032697 243.82246265 -140.75415039 230.83081055 C-140.77025219 215.69109229 -140.77649992 200.5514217 -140.7673136 185.41169608 C-140.76635809 183.793432 -140.76541498 182.17516793 -140.76448441 180.55690384 C-140.76402158 179.76098032 -140.76355875 178.96505681 -140.7630819 178.1450144 C-140.76050615 172.57225424 -140.76483211 166.99952467 -140.77192307 161.42676926 C-140.78038941 154.62456489 -140.77795096 147.82246421 -140.76208083 141.02027152 C-140.75426725 137.55868918 -140.75098625 134.09727887 -140.76102829 130.63569832 C-140.83678156 96.18875493 -135.04942068 66.31592844 -112.36303711 39.24291992 C-111.80616211 38.52749023 -111.24928711 37.81206055 -110.67553711 37.07495117 C-100.00905754 24.00375187 -85.62371474 15.69132672 -70.35375977 9.12084961 C-67.64170957 7.92480687 -65.01290228 6.56981537 -62.36303711 5.24291992 C-42.90140277 -1.24429153 -20.23317293 -0.05255015 0 0 Z " fill="#FE4406" transform="translate(406.363037109375,219.757080078125)"/>
<path d="M0 0 C1.2375 -0.03738281 2.475 -0.07476562 3.75 -0.11328125 C13.35364967 0.37441311 22.1691117 5.74921225 30.375 10.3125 C31.93963989 11.17125732 31.93963989 11.17125732 33.53588867 12.04736328 C41.02379242 16.17278298 48.45642394 20.39316713 55.86621094 24.65698242 C67.50028893 31.34646862 79.25991511 37.81158817 91 44.3125 C95.58420106 46.85260464 100.16751482 49.39430115 104.75 51.9375 C105.87140381 52.55971436 106.99280762 53.18192871 108.14819336 53.82299805 C115.34932579 57.82409287 122.52457098 61.8684934 129.6875 65.9375 C137.40955383 70.32241842 145.18133979 74.60235517 153 78.8125 C161.77155248 83.53575249 170.47169301 88.36903199 179.13354492 93.2902832 C186.66965316 97.56958085 194.23440403 101.79556204 201.8125 106 C202.96540527 106.63993896 204.11831055 107.27987793 205.30615234 107.93920898 C210.11049216 110.60457376 214.91617788 113.26743451 219.7265625 115.921875 C224.15966939 118.37009925 228.58189961 120.83730911 233 123.3125 C234.65177246 124.23579102 234.65177246 124.23579102 236.33691406 125.17773438 C239.45658276 126.92347359 242.57078703 128.67870393 245.68240356 130.43875122 C246.91559024 131.13484203 248.15014734 131.82851177 249.38619995 132.51950073 C268.81155775 143.38774262 268.81155775 143.38774262 273.4375 150.9375 C273.88996094 151.65164063 274.34242188 152.36578125 274.80859375 153.1015625 C279.00775778 160.89410952 279.33143306 169.65390951 277.3125 178.234375 C271.97140859 192.56630363 260.93763518 199.65793939 248.125 206.875 C246.99191406 207.52146484 245.85882812 208.16792969 244.69140625 208.83398438 C241.46668804 210.67054173 238.23391246 212.49219849 235 214.3125 C234.09088867 214.83312012 233.18177734 215.35374023 232.24511719 215.89013672 C231.43977539 216.34791504 230.63443359 216.80569336 229.8046875 217.27734375 C229.11101074 217.67429443 228.41733398 218.07124512 227.70263672 218.48022461 C226 219.3125 226 219.3125 224 219.3125 C224.32484375 218.33023438 224.32484375 218.33023438 224.65625 217.328125 C228.49635741 204.74110628 227.94895204 193.72643716 221.76171875 181.95703125 C220.58097794 180.00862613 219.33753646 178.15589961 218 176.3125 C217.34 175.384375 216.68 174.45625 216 173.5 C213.8660255 171.16596539 211.78561887 169.78268774 209 168.3125 C209.226875 169.4675 209.45375 170.6225 209.6875 171.8125 C210.41757178 177.61194346 208.52541368 182.05262787 205.3125 186.8125 C204.879375 187.3075 204.44625 187.8025 204 188.3125 C199.82307618 186.92019206 198.16838231 183.94440926 195.6875 180.5 C194.95273437 179.48329224 194.95273437 179.48329224 194.203125 178.44604492 C184.03044753 164.08590755 179.64636164 149.87417656 181 132.3125 C182.03898832 126.70462715 183.84853151 121.57892071 186 116.3125 C170.6903133 120.96128078 157.86691515 128.77260035 149.76953125 143.12109375 C140.1488913 161.14388865 138.47123962 178.30134217 143.9296875 197.9921875 C144.84375991 200.82781359 145.84207445 203.56894667 147 206.3125 C138.7537146 205.63933385 133.60256595 202.46395981 128.26171875 196.2890625 C124.9071384 191.03389947 124.73361183 185.95193523 124.875 179.9375 C124.88402344 179.20144531 124.89304687 178.46539062 124.90234375 177.70703125 C124.92569856 175.9087112 124.96156164 174.11056089 125 172.3125 C114.62110982 180.50497423 107.80309635 191.25340411 105 204.3125 C103.24217516 224.68769243 107.26643757 240.50816906 120.3125 256.5625 C124.2798702 260.94653465 129.0525161 264.12699729 134 267.3125 C131.61355787 269.96175533 129.09118433 271.53117951 125.9765625 273.24609375 C124.46195435 274.08599854 124.46195435 274.08599854 122.91674805 274.94287109 C121.83047119 275.53922363 120.74419434 276.13557617 119.625 276.75 C117.33161643 278.02138744 115.0386535 279.29353391 112.74609375 280.56640625 C111.60124512 281.20078613 110.45639648 281.83516602 109.27685547 282.48876953 C104.72729838 285.02082075 100.20423228 287.59746698 95.6875 290.1875 C94.85186523 290.66590332 94.01623047 291.14430664 93.15527344 291.63720703 C89.3697212 293.80534765 85.58577348 295.97627729 81.80224609 298.14794922 C65.6092523 307.43947083 49.35629196 316.60700145 33.01611328 325.63769531 C30.19994993 327.20147065 27.39297335 328.78019455 24.58984375 330.3671875 C23.77338379 330.82754395 22.95692383 331.28790039 22.11572266 331.76220703 C20.65057792 332.58935998 19.18773631 333.42061589 17.72802734 334.25732422 C8.4754721 339.46376082 -0.02490272 342.2430711 -10.7109375 339.65625 C-19.75070839 336.42974716 -25.67211629 330.85690179 -30.08984375 322.42578125 C-31.70485933 318.67589529 -32.12591729 315.37546128 -32.13422108 311.30358696 C-32.13867892 310.28812164 -32.14313676 309.27265632 -32.14772969 308.22641933 C-32.14754533 307.11262594 -32.14736097 305.99883255 -32.14717102 304.85128784 C-32.15084771 303.66661206 -32.1545244 302.48193629 -32.1583125 301.26136124 C-32.16743123 297.97183283 -32.17204725 294.68235428 -32.17470181 291.39281797 C-32.17860862 287.84528041 -32.18818671 284.29775724 -32.19691467 280.75022888 C-32.21666855 272.18225569 -32.22674398 263.61428133 -32.23564246 255.04629105 C-32.24002717 251.00999734 -32.24539352 246.97370494 -32.25063133 242.93741226 C-32.26764263 229.5172878 -32.28213635 216.09716415 -32.28938007 202.67703056 C-32.29128992 199.1951688 -32.29321026 195.71330705 -32.29516602 192.23144531 C-32.29564976 191.36606152 -32.2961335 190.50067774 -32.2966319 189.6090702 C-32.30493053 175.59337664 -32.33026508 161.57776847 -32.36274669 147.5621122 C-32.3958334 133.1678376 -32.4138303 118.77360638 -32.41702431 104.37929356 C-32.41918793 96.29932619 -32.42791482 88.21948334 -32.45348549 80.13955307 C-32.47521454 73.25767784 -32.48323211 66.37595738 -32.47351871 59.49405174 C-32.46898032 55.98490231 -32.47083279 52.47607208 -32.49028015 48.96696663 C-32.50796868 45.15624704 -32.50090644 41.34633419 -32.48774719 37.53561401 C-32.49871644 36.43520495 -32.50968568 35.33479589 -32.52098733 34.2010411 C-32.43439061 23.79525917 -29.45164753 15.88143687 -22.29296875 8.29296875 C-15.81930275 2.7015741 -8.44382146 0.16437767 0 0 Z " fill="#FEFEFE" transform="translate(405,296.6875)"/>
<path d="M0 0 C8.40716082 3.73651592 13.10788121 10.69860448 16.9375 18.8125 C18.02658464 22.07975392 17.97890109 22.88776964 17 26 C16.731875 25.23816406 16.46375 24.47632813 16.1875 23.69140625 C13.30078113 16.08528185 9.7967339 10.69604622 4 5 C3.89042969 5.59167969 3.78085937 6.18335938 3.66796875 6.79296875 C2.74085597 11.41345763 1.77648665 15.0876779 -1 19 C-1.66 18.67 -2.32 18.34 -3 18 C-2.525625 17.360625 -2.05125 16.72125 -1.5625 16.0625 C1.04948466 10.94301006 1.65582201 5.53195079 0 0 Z " fill="#FD1E0C" transform="translate(613,464)"/>
<path d="M0 0 C-0.99 2.97 -1.98 5.94 -3 9 C-4 6 -4 6 -3 3 C-8.74633229 4.6361085 -13.4710645 6.66450595 -18.37109375 10.109375 C-18.90863281 10.40328125 -19.44617188 10.6971875 -20 11 C-20.66 10.67 -21.32 10.34 -22 10 C-16.10854458 4.69769012 -8.03378604 0 0 0 Z " fill="#FE1B0D" transform="translate(591,413)"/>
<path d="M0 0 C0.66 0.33 1.32 0.66 2 1 C1.236875 1.4125 0.47375 1.825 -0.3125 2.25 C-3.07204354 3.79136312 -3.07204354 3.79136312 -4.4375 6.1875 C-6 8 -6 8 -9.1875 8.25 C-10.115625 8.1675 -11.04375 8.085 -12 8 C-9.72254211 5.51017465 -7.37664762 3.89631003 -4.4375 2.25 C-3.65246094 1.80140625 -2.86742187 1.3528125 -2.05859375 0.890625 C-1.37925781 0.59671875 -0.69992187 0.3028125 0 0 Z M-9 8 C-8.67 8.66 -8.34 9.32 -8 10 C-8.66 9.67 -9.32 9.34 -10 9 C-9.67 8.67 -9.34 8.34 -9 8 Z " fill="#FE2204" transform="translate(480,598)"/>
<path d="M0 0 C3.84849835 1.56790673 6.08938167 4.08938167 9 7 C11.28402074 8.75108256 13.62552688 10.37045963 16 12 C15.01 12.33 14.02 12.66 13 13 C10.625 11.453125 10.625 11.453125 8 9.25 C7.13375 8.53328125 6.2675 7.8165625 5.375 7.078125 C1.3902439 3.59146341 1.3902439 3.59146341 0 2 C0 1.34 0 0.68 0 0 Z " fill="#FE2714" transform="translate(523,550)"/>
<path d="M0 0 C0.66 0.33 1.32 0.66 2 1 C-0.26786278 4.64666307 -2.06404326 5.67897228 -6.1875 6.75 C-7.53908203 7.11351562 -7.53908203 7.11351562 -8.91796875 7.484375 C-9.60503906 7.65453125 -10.29210937 7.8246875 -11 8 C-11 7.34 -11 6.68 -11 6 C-9.21385682 4.96953278 -7.42089982 3.95086764 -5.625 2.9375 C-4.62726562 2.36902344 -3.62953125 1.80054688 -2.6015625 1.21484375 C-1.74304688 0.81394531 -0.88453125 0.41304688 0 0 Z " fill="#FE2206" transform="translate(649,505)"/>
<path d="M0 0 C3.63 0 7.26 0 11 0 C11 0.33 11 0.66 11 1 C7.37 1 3.74 1 0 1 C0 0.67 0 0.34 0 0 Z " fill="#FC4B0B" transform="translate(591,725)"/>
<path d="M0 0 C2.64 0 5.28 0 8 0 C8 0.33 8 0.66 8 1 C5.36 1 2.72 1 0 1 C0 0.67 0 0.34 0 0 Z " fill="#FB4A0B" transform="translate(608,725)"/>
<path d="M0 0 C2.31 0 4.62 0 7 0 C7 0.33 7 0.66 7 1 C4.69 1 2.38 1 0 1 C0 0.67 0 0.34 0 0 Z " fill="#FA480A" transform="translate(407,725)"/>
<path d="M0 0 C1.98 0 3.96 0 6 0 C6 0.33 6 0.66 6 1 C4.02 1 2.04 1 0 1 C0 0.67 0 0.34 0 0 Z " fill="#FB490B" transform="translate(432,725)"/>
<path d="M0 0 C1.65 0 3.3 0 5 0 C5 0.33 5 0.66 5 1 C3.35 1 1.7 1 0 1 C0 0.67 0 0.34 0 0 Z " fill="#FB490C" transform="translate(624,725)"/>
<path d="M0 0 C1.65 0 3.3 0 5 0 C5 0.33 5 0.66 5 1 C3.35 1 1.7 1 0 1 C0 0.67 0 0.34 0 0 Z " fill="#FC4A0B" transform="translate(536,725)"/>
<path d="M0 0 C1.65 0 3.3 0 5 0 C5 0.33 5 0.66 5 1 C3.35 1 1.7 1 0 1 C0 0.67 0 0.34 0 0 Z " fill="#FC4B0C" transform="translate(496,725)"/>
<path d="M0 0 C1.65 0 3.3 0 5 0 C5 0.33 5 0.66 5 1 C3.35 1 1.7 1 0 1 C0 0.67 0 0.34 0 0 Z " fill="#FB480B" transform="translate(444,725)"/>
<path d="M0 0 C0.33 0 0.66 0 1 0 C1 1.65 1 3.3 1 5 C0.67 5 0.34 5 0 5 C0 3.35 0 1.7 0 0 Z " fill="#F7490D" transform="translate(264,601)"/>
<path d="M0 0 C4 1 4 1 4 1 Z " fill="#FA490D" transform="translate(639,725)"/>
<path d="M0 0 C4 1 4 1 4 1 Z " fill="#FB490D" transform="translate(631,725)"/>
<path d="M0 0 C4 1 4 1 4 1 Z " fill="#FB4A0B" transform="translate(527,725)"/>
<path d="M0 0 C4 1 4 1 4 1 Z " fill="#FC490A" transform="translate(503,725)"/>
<path d="M0 0 C4 1 4 1 4 1 Z " fill="#FA490B" transform="translate(487,725)"/>
<path d="M0 0 C4 1 4 1 4 1 Z " fill="#FB4A0B" transform="translate(479,725)"/>
<path d="M0 0 C4 1 4 1 4 1 Z " fill="#FB4A0B" transform="translate(471,725)"/>
<path d="M0 0 C4 1 4 1 4 1 Z " fill="#FB4A0B" transform="translate(463,725)"/>
<path d="M0 0 C4 1 4 1 4 1 Z " fill="#FC490A" transform="translate(455,725)"/>
<path d="M0 0 C3 1 3 1 3 1 Z " fill="#FC490A" transform="translate(583,725)"/>
<path d="M0 0 C3 1 3 1 3 1 Z " fill="#FC480A" transform="translate(571,725)"/>
<path d="M0 0 C3 1 3 1 3 1 Z " fill="#FE490B" transform="translate(560,725)"/>
<path d="M0 0 C3 1 3 1 3 1 Z " fill="#FC490B" transform="translate(519,725)"/>
<path d="M0 0 C3 1 3 1 3 1 Z " fill="#FC490A" transform="translate(439,725)"/>
<path d="M0 0 C3 1 3 1 3 1 Z " fill="#FA490C" transform="translate(402,725)"/>
<path d="M0 0 C3 1 3 1 3 1 Z " fill="#FA4A0C" transform="translate(398,725)"/>
<path d="" fill="#F8490D" transform="translate(0,0)"/>
<path d="" fill="#F9490D" transform="translate(0,0)"/>
<path d="" fill="#F84A0E" transform="translate(0,0)"/>
<path d="" fill="#FA4A0D" transform="translate(0,0)"/>
<path d="M0 0 C2 1 2 1 2 1 Z " fill="#FB480B" transform="translate(620,725)"/>
<path d="M0 0 C2 1 2 1 2 1 Z " fill="#FD490A" transform="translate(588,725)"/>
<path d="M0 0 C2 1 2 1 2 1 Z " fill="#FC490A" transform="translate(575,725)"/>
<path d="M0 0 C2 1 2 1 2 1 Z " fill="#FC490A" transform="translate(567,725)"/>
<path d="M0 0 C2 1 2 1 2 1 Z " fill="#FE490A" transform="translate(564,725)"/>
<path d="M0 0 C2 1 2 1 2 1 Z " fill="#FB480A" transform="translate(556,725)"/>
<path d="M0 0 C2 1 2 1 2 1 Z " fill="#FC490A" transform="translate(551,725)"/>
<path d="M0 0 C2 1 2 1 2 1 Z " fill="#FB490C" transform="translate(543,725)"/>
<path d="M0 0 C2 1 2 1 2 1 Z " fill="#FB480B" transform="translate(511,725)"/>
<path d="M0 0 C2 1 2 1 2 1 Z " fill="#FB490B" transform="translate(452,725)"/>
<path d="M0 0 C2 1 2 1 2 1 Z " fill="#FC480A" transform="translate(428,725)"/>
<path d="M0 0 C2 1 2 1 2 1 Z " fill="#FC460B" transform="translate(420,725)"/>
<path d="M0 0 C2 1 2 1 2 1 Z " fill="#FA480B" transform="translate(415,725)"/>
<path d="M0 0 C2 1 2 1 2 1 Z " fill="#F9490B" transform="translate(391,725)"/>
<path d="M0 0 C2 1 2 1 2 1 Z " fill="#FA480B" transform="translate(388,725)"/>
<path d="M0 0 C2 1 2 1 2 1 Z " fill="#F54C0E" transform="translate(678,719)"/>
<path d="" fill="#F4490D" transform="translate(0,0)"/>
<path d="" fill="#F3480D" transform="translate(0,0)"/>
<path d="" fill="#F1490E" transform="translate(0,0)"/>
<path d="" fill="#F4490F" transform="translate(0,0)"/>
<path d="" fill="#F84A0E" transform="translate(0,0)"/>
<path d="" fill="#F7490F" transform="translate(0,0)"/>
<path d="" fill="#F84B0D" transform="translate(0,0)"/>
<path d="" fill="#333232" transform="translate(0,0)"/>
<path d="" fill="#3A2523" transform="translate(0,0)"/>
<path d="" fill="#FD4B0C" transform="translate(0,0)"/>
<path d="" fill="#FC490B" transform="translate(0,0)"/>
<path d="" fill="#FC490A" transform="translate(0,0)"/>
<path d="" fill="#FF490B" transform="translate(0,0)"/>
<path d="" fill="#FF4B0C" transform="translate(0,0)"/>
<path d="" fill="#FD490A" transform="translate(0,0)"/>
<path d="" fill="#FD4A0C" transform="translate(0,0)"/>
<path d="" fill="#FD480A" transform="translate(0,0)"/>
<path d="" fill="#FB490B" transform="translate(0,0)"/>
<path d="" fill="#FD490B" transform="translate(0,0)"/>
<path d="" fill="#FB490B" transform="translate(0,0)"/>
<path d="" fill="#FC480B" transform="translate(0,0)"/>
<path d="" fill="#FC490C" transform="translate(0,0)"/>
<path d="" fill="#FA4A0B" transform="translate(0,0)"/>
<path d="" fill="#FA490C" transform="translate(0,0)"/>
<path d="" fill="#FA4A0D" transform="translate(0,0)"/>
<path d="" fill="#F94B0D" transform="translate(0,0)"/>
<path d="" fill="#F4480C" transform="translate(0,0)"/>
<path d="" fill="#F4490F" transform="translate(0,0)"/>
<path d="" fill="#F34A0F" transform="translate(0,0)"/>
<path d="" fill="#F44B0F" transform="translate(0,0)"/>
<path d="" fill="#F74B0E" transform="translate(0,0)"/>
<path d="" fill="#F44911" transform="translate(0,0)"/>
<path d="" fill="#F34910" transform="translate(0,0)"/>
<path d="" fill="#F3490F" transform="translate(0,0)"/>
<path d="" fill="#F34B10" transform="translate(0,0)"/>
<path d="" fill="#EE4A11" transform="translate(0,0)"/>
<path d="" fill="#F64A0D" transform="translate(0,0)"/>
<path d="" fill="#F84A0F" transform="translate(0,0)"/>
<path d="" fill="#F8490E" transform="translate(0,0)"/>
<path d="" fill="#F74B0C" transform="translate(0,0)"/>
<path d="" fill="#F74A0D" transform="translate(0,0)"/>
<path d="" fill="#F5490C" transform="translate(0,0)"/>
<path d="" fill="#F84C0D" transform="translate(0,0)"/>
<path d="" fill="#F7480D" transform="translate(0,0)"/>
<path d="" fill="#F7480D" transform="translate(0,0)"/>
<path d="" fill="#F8490C" transform="translate(0,0)"/>
<path d="" fill="#FA4D10" transform="translate(0,0)"/>
<path d="" fill="#F94A0F" transform="translate(0,0)"/>
<path d="" fill="#F84B0C" transform="translate(0,0)"/>
<path d="" fill="#F6480D" transform="translate(0,0)"/>
<path d="" fill="#F9470D" transform="translate(0,0)"/>
<path d="" fill="#F74A0D" transform="translate(0,0)"/>
<path d="" fill="#F94B0F" transform="translate(0,0)"/>
<path d="" fill="#F94B0E" transform="translate(0,0)"/>
<path d="" fill="#F74A0D" transform="translate(0,0)"/>
<path d="" fill="#F84B0F" transform="translate(0,0)"/>
<path d="" fill="#F6490D" transform="translate(0,0)"/>
<path d="" fill="#F6480F" transform="translate(0,0)"/>
<path d="" fill="#F54A0F" transform="translate(0,0)"/>
<path d="" fill="#F74C10" transform="translate(0,0)"/>
<path d="" fill="#F74B0F" transform="translate(0,0)"/>
<path d="" fill="#F24B11" transform="translate(0,0)"/>
<path d="" fill="#F14B11" transform="translate(0,0)"/>
<path d="" fill="#F24A0F" transform="translate(0,0)"/>
<path d="" fill="#EF4B0F" transform="translate(0,0)"/>
<path d="" fill="#F34A10" transform="translate(0,0)"/>
<path d="" fill="#F04B0F" transform="translate(0,0)"/>
<path d="" fill="#F14A0E" transform="translate(0,0)"/>
</svg>